{
    "asset" : {
        "generator" : "Khronos glTF Blender I/O v1.3.48",
        "version" : "2.0"
    },
    "scene" : 0,
    "scenes" : [
        {
            "name" : "Scene",
            "nodes" : [
                0
            ]
        }
    ],
    "nodes" : [
        {
            "mesh" : 0,
            "name" : "capsule",
            "rotation" : [
                0.7071068286895752,
                0,
                0,
                0.7071068286895752
            ]
        }
    ],
    "meshes" : [
        {
            "name" : "capsule.001",
            "primitives" : [
                {
                    "attributes" : {
                        "POSITION" : 0,
                        "NORMAL" : 1,
                        "TANGENT" : 2,
                        "TEXCOORD_0" : 3
                    },
                    "indices" : 4
                }
            ]
        }
    ],
    "accessors" : [
        {
            "bufferView" : 0,
            "componentType" : 5126,
            "count" : 550,
            "max" : [
                0.5,
                0.5,
                1
            ],
            "min" : [
                -0.5,
                -0.5,
                -1
            ],
            "type" : "VEC3"
        },
        {
            "bufferView" : 1,
            "componentType" : 5126,
            "count" : 550,
            "type" : "VEC3"
        },
        {
            "bufferView" : 2,
            "componentType" : 5126,
            "count" : 550,
            "type" : "VEC4"
        },
        {
            "bufferView" : 3,
            "componentType" : 5126,
            "count" : 550,
            "type" : "VEC2"
        },
        {
            "bufferView" : 4,
            "componentType" : 5123,
            "count" : 2496,
            "type" : "SCALAR"
        }
    ],
    "bufferViews" : [
        {
            "buffer" : 0,
            "byteLength" : 6600,
            "byteOffset" : 0
        },
        {
            "buffer" : 0,
            "byteLength" : 6600,
            "byteOffset" : 6600
        },
        {
            "buffer" : 0,
            "byteLength" : 8800,
            "byteOffset" : 13200
        },
        {
            "buffer" : 0,
            "byteLength" : 4400,
            "byteOffset" : 22000
        },
        {
            "buffer" : 0,
            "byteLength" : 4992,
            "byteOffset" : 26400
        }
    ],
    "buffers" : [
        {
            "byteLength" : 31392,
            "uri" : "capsule.bin"
        }
    ]
}
