{
    "asset" : {
        "generator" : "Khronos glTF Blender I/O v1.3.48",
        "version" : "2.0"
    },
    "scene" : 0,
    "scenes" : [
        {
            "name" : "Scene",
            "nodes" : [
                9
            ]
        }
    ],
    "nodes" : [
        {
            "name" : "head",
            "rotation" : [
                7.252834777204953e-09,
                -1.5432465971798592e-08,
                0.11862609535455704,
                0.9929389953613281
            ],
            "translation" : [
                2.2155761669750973e-09,
                0.12420596182346344,
                3.363295935970758e-15
            ]
        },
        {
            "children" : [
                0
            ],
            "name" : "neck",
            "rotation" : [
                7.77011592845156e-08,
                -1.5845246892354226e-08,
                -0.1749889999628067,
                0.9845703840255737
            ],
            "scale" : [
                1.000000238418579,
                1.000000238418579,
                1
            ],
            "translation" : [
                8.083004487957623e-09,
                0.16307330131530762,
                2.3969782186666552e-14
            ]
        },
        {
            "name" : "forearm_l",
            "rotation" : [
                -0.07356062531471252,
                0.11414851248264313,
                -0.1768645942211151,
                0.9748219847679138
            ],
            "scale" : [
                0.9999998807907104,
                1.0000001192092896,
                1.0000001192092896
            ],
            "translation" : [
                8.510403048944681e-09,
                0.27448880672454834,
                3.825574168558887e-08
            ]
        },
        {
            "children" : [
                2
            ],
            "name" : "bicep_l",
            "rotation" : [
                -0.4172341227531433,
                -0.021325523033738136,
                0.021097492426633835,
                0.9083037972450256
            ],
            "scale" : [
                1.0000003576278687,
                0.9999999403953552,
                1.0000001192092896
            ],
            "translation" : [
                2.6342812375901303e-09,
                0.18014724552631378,
                -4.0012810842426916e-08
            ]
        },
        {
            "children" : [
                3
            ],
            "name" : "shoulder_l",
            "rotation" : [
                -0.8030661344528198,
                0.015301528386771679,
                -0.06429950892925262,
                0.5922131538391113
            ],
            "scale" : [
                1.000000238418579,
                1.000000238418579,
                1.0000001192092896
            ],
            "translation" : [
                8.596249045922377e-09,
                0.16307328641414642,
                1.7678127406384192e-08
            ]
        },
        {
            "children" : [
                1,
                4
            ],
            "name" : "spine3",
            "rotation" : [
                1.2649744585147005e-09,
                1.4861424801893008e-07,
                0.0569576732814312,
                0.9983766078948975
            ],
            "translation" : [
                -9.363643194149063e-09,
                0.13507801294326782,
                -1.4838852565592867e-15
            ]
        },
        {
            "children" : [
                5
            ],
            "name" : "spine2",
            "rotation" : [
                -2.3283865946410742e-09,
                2.5275099346799834e-08,
                -0.0818244069814682,
                0.9966467618942261
            ],
            "scale" : [
                0.9999998807907104,
                1.0000001192092896,
                0.9999999403953552
            ],
            "translation" : [
                -1.1701999369506666e-09,
                0.17022103071212769,
                -1.4014768281978528e-14
            ]
        },
        {
            "children" : [
                6
            ],
            "name" : "spine1",
            "rotation" : [
                8.783886329410961e-08,
                -1.816805017540446e-08,
                0.0818244069814682,
                0.9966467618942261
            ],
            "scale" : [
                0.9999998807907104,
                0.9999998807907104,
                0.9999997615814209
            ]
        },
        {
            "mesh" : 0,
            "name" : "Cube",
            "skin" : 0
        },
        {
            "children" : [
                8,
                7
            ],
            "name" : "Armature",
            "translation" : [
                0,
                0.8999999761581421,
                0
            ]
        }
    ],
    "animations" : [
        {
            "channels" : [
                {
                    "sampler" : 0,
                    "target" : {
                        "node" : 7,
                        "path" : "translation"
                    }
                },
                {
                    "sampler" : 1,
                    "target" : {
                        "node" : 7,
                        "path" : "rotation"
                    }
                },
                {
                    "sampler" : 2,
                    "target" : {
                        "node" : 7,
                        "path" : "scale"
                    }
                },
                {
                    "sampler" : 3,
                    "target" : {
                        "node" : 6,
                        "path" : "translation"
                    }
                },
                {
                    "sampler" : 4,
                    "target" : {
                        "node" : 6,
                        "path" : "rotation"
                    }
                },
                {
                    "sampler" : 5,
                    "target" : {
                        "node" : 6,
                        "path" : "scale"
                    }
                },
                {
                    "sampler" : 6,
                    "target" : {
                        "node" : 5,
                        "path" : "translation"
                    }
                },
                {
                    "sampler" : 7,
                    "target" : {
                        "node" : 5,
                        "path" : "rotation"
                    }
                },
                {
                    "sampler" : 8,
                    "target" : {
                        "node" : 5,
                        "path" : "scale"
                    }
                },
                {
                    "sampler" : 9,
                    "target" : {
                        "node" : 1,
                        "path" : "translation"
                    }
                },
                {
                    "sampler" : 10,
                    "target" : {
                        "node" : 1,
                        "path" : "rotation"
                    }
                },
                {
                    "sampler" : 11,
                    "target" : {
                        "node" : 1,
                        "path" : "scale"
                    }
                },
                {
                    "sampler" : 12,
                    "target" : {
                        "node" : 0,
                        "path" : "translation"
                    }
                },
                {
                    "sampler" : 13,
                    "target" : {
                        "node" : 0,
                        "path" : "rotation"
                    }
                },
                {
                    "sampler" : 14,
                    "target" : {
                        "node" : 0,
                        "path" : "scale"
                    }
                },
                {
                    "sampler" : 15,
                    "target" : {
                        "node" : 4,
                        "path" : "translation"
                    }
                },
                {
                    "sampler" : 16,
                    "target" : {
                        "node" : 4,
                        "path" : "rotation"
                    }
                },
                {
                    "sampler" : 17,
                    "target" : {
                        "node" : 4,
                        "path" : "scale"
                    }
                },
                {
                    "sampler" : 18,
                    "target" : {
                        "node" : 3,
                        "path" : "translation"
                    }
                },
                {
                    "sampler" : 19,
                    "target" : {
                        "node" : 3,
                        "path" : "rotation"
                    }
                },
                {
                    "sampler" : 20,
                    "target" : {
                        "node" : 3,
                        "path" : "scale"
                    }
                },
                {
                    "sampler" : 21,
                    "target" : {
                        "node" : 2,
                        "path" : "translation"
                    }
                },
                {
                    "sampler" : 22,
                    "target" : {
                        "node" : 2,
                        "path" : "rotation"
                    }
                },
                {
                    "sampler" : 23,
                    "target" : {
                        "node" : 2,
                        "path" : "scale"
                    }
                }
            ],
            "name" : "wiggle",
            "samplers" : [
                {
                    "input" : 8,
                    "interpolation" : "LINEAR",
                    "output" : 9
                },
                {
                    "input" : 8,
                    "interpolation" : "LINEAR",
                    "output" : 10
                },
                {
                    "input" : 8,
                    "interpolation" : "LINEAR",
                    "output" : 11
                },
                {
                    "input" : 8,
                    "interpolation" : "LINEAR",
                    "output" : 12
                },
                {
                    "input" : 8,
                    "interpolation" : "LINEAR",
                    "output" : 13
                },
                {
                    "input" : 8,
                    "interpolation" : "LINEAR",
                    "output" : 14
                },
                {
                    "input" : 8,
                    "interpolation" : "LINEAR",
                    "output" : 15
                },
                {
                    "input" : 8,
                    "interpolation" : "LINEAR",
                    "output" : 16
                },
                {
                    "input" : 8,
                    "interpolation" : "LINEAR",
                    "output" : 17
                },
                {
                    "input" : 8,
                    "interpolation" : "LINEAR",
                    "output" : 18
                },
                {
                    "input" : 8,
                    "interpolation" : "LINEAR",
                    "output" : 19
                },
                {
                    "input" : 8,
                    "interpolation" : "LINEAR",
                    "output" : 20
                },
                {
                    "input" : 8,
                    "interpolation" : "LINEAR",
                    "output" : 21
                },
                {
                    "input" : 8,
                    "interpolation" : "LINEAR",
                    "output" : 22
                },
                {
                    "input" : 8,
                    "interpolation" : "LINEAR",
                    "output" : 23
                },
                {
                    "input" : 8,
                    "interpolation" : "LINEAR",
                    "output" : 24
                },
                {
                    "input" : 8,
                    "interpolation" : "LINEAR",
                    "output" : 25
                },
                {
                    "input" : 8,
                    "interpolation" : "LINEAR",
                    "output" : 26
                },
                {
                    "input" : 8,
                    "interpolation" : "LINEAR",
                    "output" : 27
                },
                {
                    "input" : 8,
                    "interpolation" : "LINEAR",
                    "output" : 28
                },
                {
                    "input" : 8,
                    "interpolation" : "LINEAR",
                    "output" : 29
                },
                {
                    "input" : 8,
                    "interpolation" : "LINEAR",
                    "output" : 30
                },
                {
                    "input" : 8,
                    "interpolation" : "LINEAR",
                    "output" : 31
                },
                {
                    "input" : 8,
                    "interpolation" : "LINEAR",
                    "output" : 32
                }
            ]
        }
    ],
    "materials" : [
        {
            "doubleSided" : true,
            "emissiveFactor" : [
                0,
                0,
                0
            ],
            "name" : "Material.001",
            "pbrMetallicRoughness" : {
                "baseColorTexture" : {
                    "index" : 0,
                    "texCoord" : 0
                },
                "metallicFactor" : 0,
                "roughnessFactor" : 0.4000000059604645
            }
        }
    ],
    "meshes" : [
        {
            "name" : "Cube.001",
            "primitives" : [
                {
                    "attributes" : {
                        "POSITION" : 0,
                        "NORMAL" : 1,
                        "TEXCOORD_0" : 2,
                        "COLOR_0" : 3,
                        "JOINTS_0" : 4,
                        "WEIGHTS_0" : 5
                    },
                    "indices" : 6,
                    "material" : 0
                }
            ]
        }
    ],
    "textures" : [
        {
            "source" : 0
        }
    ],
    "images" : [
        {
            "mimeType" : "image/png",
            "name" : "jeff",
            "uri" : "jeff.png"
        }
    ],
    "skins" : [
        {
            "inverseBindMatrices" : 7,
            "joints" : [
                7,
                6,
                5,
                1,
                0,
                4,
                3,
                2
            ],
            "name" : "Armature"
        }
    ],
    "accessors" : [
        {
            "bufferView" : 0,
            "componentType" : 5126,
            "count" : 1130,
            "max" : [
                0.12433984130620956,
                1.6800698041915894,
                0.37606140971183777
            ],
            "min" : [
                -0.11634586751461029,
                0.0008063316345214844,
                -0.3760612905025482
            ],
            "type" : "VEC3"
        },
        {
            "bufferView" : 1,
            "componentType" : 5126,
            "count" : 1130,
            "type" : "VEC3"
        },
        {
            "bufferView" : 2,
            "componentType" : 5126,
            "count" : 1130,
            "type" : "VEC2"
        },
        {
            "bufferView" : 3,
            "componentType" : 5126,
            "count" : 1130,
            "type" : "VEC4"
        },
        {
            "bufferView" : 4,
            "componentType" : 5123,
            "count" : 1130,
            "type" : "VEC4"
        },
        {
            "bufferView" : 5,
            "componentType" : 5126,
            "count" : 1130,
            "type" : "VEC4"
        },
        {
            "bufferView" : 6,
            "componentType" : 5123,
            "count" : 4032,
            "type" : "SCALAR"
        },
        {
            "bufferView" : 7,
            "componentType" : 5126,
            "count" : 8,
            "type" : "MAT4"
        },
        {
            "bufferView" : 8,
            "componentType" : 5126,
            "count" : 33,
            "max" : [
                1.3333333333333333
            ],
            "min" : [
                0
            ],
            "type" : "SCALAR"
        },
        {
            "bufferView" : 9,
            "componentType" : 5126,
            "count" : 33,
            "type" : "VEC3"
        },
        {
            "bufferView" : 10,
            "componentType" : 5126,
            "count" : 33,
            "type" : "VEC4"
        },
        {
            "bufferView" : 11,
            "componentType" : 5126,
            "count" : 33,
            "type" : "VEC3"
        },
        {
            "bufferView" : 12,
            "componentType" : 5126,
            "count" : 33,
            "type" : "VEC3"
        },
        {
            "bufferView" : 13,
            "componentType" : 5126,
            "count" : 33,
            "type" : "VEC4"
        },
        {
            "bufferView" : 14,
            "componentType" : 5126,
            "count" : 33,
            "type" : "VEC3"
        },
        {
            "bufferView" : 15,
            "componentType" : 5126,
            "count" : 33,
            "type" : "VEC3"
        },
        {
            "bufferView" : 16,
            "componentType" : 5126,
            "count" : 33,
            "type" : "VEC4"
        },
        {
            "bufferView" : 17,
            "componentType" : 5126,
            "count" : 33,
            "type" : "VEC3"
        },
        {
            "bufferView" : 18,
            "componentType" : 5126,
            "count" : 33,
            "type" : "VEC3"
        },
        {
            "bufferView" : 19,
            "componentType" : 5126,
            "count" : 33,
            "type" : "VEC4"
        },
        {
            "bufferView" : 20,
            "componentType" : 5126,
            "count" : 33,
            "type" : "VEC3"
        },
        {
            "bufferView" : 21,
            "componentType" : 5126,
            "count" : 33,
            "type" : "VEC3"
        },
        {
            "bufferView" : 22,
            "componentType" : 5126,
            "count" : 33,
            "type" : "VEC4"
        },
        {
            "bufferView" : 23,
            "componentType" : 5126,
            "count" : 33,
            "type" : "VEC3"
        },
        {
            "bufferView" : 24,
            "componentType" : 5126,
            "count" : 33,
            "type" : "VEC3"
        },
        {
            "bufferView" : 25,
            "componentType" : 5126,
            "count" : 33,
            "type" : "VEC4"
        },
        {
            "bufferView" : 26,
            "componentType" : 5126,
            "count" : 33,
            "type" : "VEC3"
        },
        {
            "bufferView" : 27,
            "componentType" : 5126,
            "count" : 33,
            "type" : "VEC3"
        },
        {
            "bufferView" : 28,
            "componentType" : 5126,
            "count" : 33,
            "type" : "VEC4"
        },
        {
            "bufferView" : 29,
            "componentType" : 5126,
            "count" : 33,
            "type" : "VEC3"
        },
        {
            "bufferView" : 30,
            "componentType" : 5126,
            "count" : 33,
            "type" : "VEC3"
        },
        {
            "bufferView" : 31,
            "componentType" : 5126,
            "count" : 33,
            "type" : "VEC4"
        },
        {
            "bufferView" : 32,
            "componentType" : 5126,
            "count" : 33,
            "type" : "VEC3"
        }
    ],
    "bufferViews" : [
        {
            "buffer" : 0,
            "byteLength" : 13560,
            "byteOffset" : 0
        },
        {
            "buffer" : 0,
            "byteLength" : 13560,
            "byteOffset" : 13560
        },
        {
            "buffer" : 0,
            "byteLength" : 9040,
            "byteOffset" : 27120
        },
        {
            "buffer" : 0,
            "byteLength" : 18080,
            "byteOffset" : 36160
        },
        {
            "buffer" : 0,
            "byteLength" : 9040,
            "byteOffset" : 54240
        },
        {
            "buffer" : 0,
            "byteLength" : 18080,
            "byteOffset" : 63280
        },
        {
            "buffer" : 0,
            "byteLength" : 8064,
            "byteOffset" : 81360
        },
        {
            "buffer" : 0,
            "byteLength" : 512,
            "byteOffset" : 89424
        },
        {
            "buffer" : 0,
            "byteLength" : 132,
            "byteOffset" : 89936
        },
        {
            "buffer" : 0,
            "byteLength" : 396,
            "byteOffset" : 90068
        },
        {
            "buffer" : 0,
            "byteLength" : 528,
            "byteOffset" : 90464
        },
        {
            "buffer" : 0,
            "byteLength" : 396,
            "byteOffset" : 90992
        },
        {
            "buffer" : 0,
            "byteLength" : 396,
            "byteOffset" : 91388
        },
        {
            "buffer" : 0,
            "byteLength" : 528,
            "byteOffset" : 91784
        },
        {
            "buffer" : 0,
            "byteLength" : 396,
            "byteOffset" : 92312
        },
        {
            "buffer" : 0,
            "byteLength" : 396,
            "byteOffset" : 92708
        },
        {
            "buffer" : 0,
            "byteLength" : 528,
            "byteOffset" : 93104
        },
        {
            "buffer" : 0,
            "byteLength" : 396,
            "byteOffset" : 93632
        },
        {
            "buffer" : 0,
            "byteLength" : 396,
            "byteOffset" : 94028
        },
        {
            "buffer" : 0,
            "byteLength" : 528,
            "byteOffset" : 94424
        },
        {
            "buffer" : 0,
            "byteLength" : 396,
            "byteOffset" : 94952
        },
        {
            "buffer" : 0,
            "byteLength" : 396,
            "byteOffset" : 95348
        },
        {
            "buffer" : 0,
            "byteLength" : 528,
            "byteOffset" : 95744
        },
        {
            "buffer" : 0,
            "byteLength" : 396,
            "byteOffset" : 96272
        },
        {
            "buffer" : 0,
            "byteLength" : 396,
            "byteOffset" : 96668
        },
        {
            "buffer" : 0,
            "byteLength" : 528,
            "byteOffset" : 97064
        },
        {
            "buffer" : 0,
            "byteLength" : 396,
            "byteOffset" : 97592
        },
        {
            "buffer" : 0,
            "byteLength" : 396,
            "byteOffset" : 97988
        },
        {
            "buffer" : 0,
            "byteLength" : 528,
            "byteOffset" : 98384
        },
        {
            "buffer" : 0,
            "byteLength" : 396,
            "byteOffset" : 98912
        },
        {
            "buffer" : 0,
            "byteLength" : 396,
            "byteOffset" : 99308
        },
        {
            "buffer" : 0,
            "byteLength" : 528,
            "byteOffset" : 99704
        },
        {
            "buffer" : 0,
            "byteLength" : 396,
            "byteOffset" : 100232
        }
    ],
    "buffers" : [
        {
            "byteLength" : 100628,
            "uri" : "ron.bin"
        }
    ]
}
