{
    "asset" : {
        "generator" : "Khronos glTF Blender I/O v1.3.48",
        "version" : "2.0"
    },
    "scene" : 0,
    "scenes" : [
        {
            "name" : "Scene",
            "nodes" : [
                10
            ]
        }
    ],
    "nodes" : [
        {
            "name" : "Node_2.006",
            "rotation" : [
                1.470788824065039e-08,
                -3.359267708447078e-08,
                0.40107348561286926,
                0.9160459041595459
            ],
            "scale" : [
                0.9999999403953552,
                0.9999999403953552,
                1
            ],
            "translation" : [
                -1.9823346519842744e-07,
                0.3404955267906189,
                3.770791120213772e-14
            ]
        },
        {
            "children" : [
                0
            ],
            "name" : "Node_2.005",
            "rotation" : [
                2.693503553530263e-08,
                -2.7653173972908007e-08,
                -0.6977439522743225,
                0.7163472771644592
            ],
            "scale" : [
                0.9999998807907104,
                0.9999998807907104,
                1
            ],
            "translation" : [
                -3.0274455298240355e-07,
                0.498690128326416,
                3.0731398870977034e-14
            ]
        },
        {
            "children" : [
                1
            ],
            "name" : "Node_2.002",
            "rotation" : [
                -4.289353228159598e-08,
                1.1370030250645868e-08,
                0.6998727917671204,
                0.7142675518989563
            ],
            "scale" : [
                0.9999999403953552,
                0.9999999403953552,
                1
            ],
            "translation" : [
                -9.313587678860813e-10,
                1.2754693031311035,
                -6.533662499919046e-14
            ]
        },
        {
            "name" : "Node_2.007",
            "rotation" : [
                1.2922747316679306e-07,
                -8.269357643087005e-09,
                -0.4398860037326813,
                0.8980536460876465
            ],
            "translation" : [
                -3.419718836994434e-07,
                0.34423407912254333,
                2.3335230842362782e-14
            ]
        },
        {
            "children" : [
                3
            ],
            "name" : "Node_2.004",
            "rotation" : [
                -1.6303569339015667e-07,
                5.09213933241881e-08,
                0.7053240537643433,
                0.7088850736618042
            ],
            "scale" : [
                1.0000001192092896,
                1,
                1
            ],
            "translation" : [
                -8.568194687086361e-08,
                0.4986902177333832,
                2.8199664825478976e-14
            ]
        },
        {
            "children" : [
                4
            ],
            "name" : "Node_2.003",
            "rotation" : [
                7.119075462469482e-08,
                4.0931247724529385e-08,
                -0.695608913898468,
                0.718420684337616
            ],
            "scale" : [
                1.0000001192092896,
                1.0000001192092896,
                1
            ],
            "translation" : [
                -9.313587678860813e-10,
                1.2754693031311035,
                -3.6914915568786455e-14
            ]
        },
        {
            "children" : [
                2,
                5
            ],
            "name" : "Node_2.001",
            "rotation" : [
                -8.414140495460742e-08,
                -5.936958036301121e-09,
                -0.00297615141607821,
                0.9999955892562866
            ],
            "translation" : [
                -1.4889251025954498e-22,
                1.000000238418579,
                0
            ]
        },
        {
            "children" : [
                6
            ],
            "name" : "Node_2",
            "rotation" : [
                4.263256414560601e-14,
                -1.5987211554602254e-14,
                5.178150634581953e-22,
                1
            ],
            "translation" : [
                3.611470554406519e-21,
                1.0000004768371582,
                -2.842170943040401e-14
            ]
        },
        {
            "children" : [
                7
            ],
            "name" : "Node_1",
            "rotation" : [
                1.65143518415789e-07,
                2.8370715554615344e-08,
                4.2869320018758955e-15,
                1
            ]
        },
        {
            "mesh" : 0,
            "name" : "Mesh_0",
            "skin" : 0
        },
        {
            "children" : [
                9,
                8
            ],
            "name" : "Armature.001"
        }
    ],
    "animations" : [
        {
            "channels" : [
                {
                    "sampler" : 0,
                    "target" : {
                        "node" : 8,
                        "path" : "translation"
                    }
                },
                {
                    "sampler" : 1,
                    "target" : {
                        "node" : 8,
                        "path" : "rotation"
                    }
                },
                {
                    "sampler" : 2,
                    "target" : {
                        "node" : 8,
                        "path" : "scale"
                    }
                },
                {
                    "sampler" : 3,
                    "target" : {
                        "node" : 7,
                        "path" : "translation"
                    }
                },
                {
                    "sampler" : 4,
                    "target" : {
                        "node" : 7,
                        "path" : "rotation"
                    }
                },
                {
                    "sampler" : 5,
                    "target" : {
                        "node" : 7,
                        "path" : "scale"
                    }
                },
                {
                    "sampler" : 6,
                    "target" : {
                        "node" : 6,
                        "path" : "translation"
                    }
                },
                {
                    "sampler" : 7,
                    "target" : {
                        "node" : 6,
                        "path" : "rotation"
                    }
                },
                {
                    "sampler" : 8,
                    "target" : {
                        "node" : 6,
                        "path" : "scale"
                    }
                },
                {
                    "sampler" : 9,
                    "target" : {
                        "node" : 2,
                        "path" : "translation"
                    }
                },
                {
                    "sampler" : 10,
                    "target" : {
                        "node" : 2,
                        "path" : "rotation"
                    }
                },
                {
                    "sampler" : 11,
                    "target" : {
                        "node" : 2,
                        "path" : "scale"
                    }
                },
                {
                    "sampler" : 12,
                    "target" : {
                        "node" : 1,
                        "path" : "translation"
                    }
                },
                {
                    "sampler" : 13,
                    "target" : {
                        "node" : 1,
                        "path" : "rotation"
                    }
                },
                {
                    "sampler" : 14,
                    "target" : {
                        "node" : 1,
                        "path" : "scale"
                    }
                },
                {
                    "sampler" : 15,
                    "target" : {
                        "node" : 0,
                        "path" : "translation"
                    }
                },
                {
                    "sampler" : 16,
                    "target" : {
                        "node" : 0,
                        "path" : "rotation"
                    }
                },
                {
                    "sampler" : 17,
                    "target" : {
                        "node" : 0,
                        "path" : "scale"
                    }
                },
                {
                    "sampler" : 18,
                    "target" : {
                        "node" : 5,
                        "path" : "translation"
                    }
                },
                {
                    "sampler" : 19,
                    "target" : {
                        "node" : 5,
                        "path" : "rotation"
                    }
                },
                {
                    "sampler" : 20,
                    "target" : {
                        "node" : 5,
                        "path" : "scale"
                    }
                },
                {
                    "sampler" : 21,
                    "target" : {
                        "node" : 4,
                        "path" : "translation"
                    }
                },
                {
                    "sampler" : 22,
                    "target" : {
                        "node" : 4,
                        "path" : "rotation"
                    }
                },
                {
                    "sampler" : 23,
                    "target" : {
                        "node" : 4,
                        "path" : "scale"
                    }
                },
                {
                    "sampler" : 24,
                    "target" : {
                        "node" : 3,
                        "path" : "translation"
                    }
                },
                {
                    "sampler" : 25,
                    "target" : {
                        "node" : 3,
                        "path" : "rotation"
                    }
                },
                {
                    "sampler" : 26,
                    "target" : {
                        "node" : 3,
                        "path" : "scale"
                    }
                }
            ],
            "name" : "Anim_0",
            "samplers" : [
                {
                    "input" : 6,
                    "interpolation" : "LINEAR",
                    "output" : 7
                },
                {
                    "input" : 6,
                    "interpolation" : "LINEAR",
                    "output" : 8
                },
                {
                    "input" : 6,
                    "interpolation" : "LINEAR",
                    "output" : 9
                },
                {
                    "input" : 6,
                    "interpolation" : "LINEAR",
                    "output" : 10
                },
                {
                    "input" : 6,
                    "interpolation" : "LINEAR",
                    "output" : 11
                },
                {
                    "input" : 6,
                    "interpolation" : "LINEAR",
                    "output" : 12
                },
                {
                    "input" : 6,
                    "interpolation" : "LINEAR",
                    "output" : 13
                },
                {
                    "input" : 6,
                    "interpolation" : "LINEAR",
                    "output" : 14
                },
                {
                    "input" : 6,
                    "interpolation" : "LINEAR",
                    "output" : 15
                },
                {
                    "input" : 6,
                    "interpolation" : "LINEAR",
                    "output" : 16
                },
                {
                    "input" : 6,
                    "interpolation" : "LINEAR",
                    "output" : 17
                },
                {
                    "input" : 6,
                    "interpolation" : "LINEAR",
                    "output" : 18
                },
                {
                    "input" : 6,
                    "interpolation" : "LINEAR",
                    "output" : 19
                },
                {
                    "input" : 6,
                    "interpolation" : "LINEAR",
                    "output" : 20
                },
                {
                    "input" : 6,
                    "interpolation" : "LINEAR",
                    "output" : 21
                },
                {
                    "input" : 6,
                    "interpolation" : "LINEAR",
                    "output" : 22
                },
                {
                    "input" : 6,
                    "interpolation" : "LINEAR",
                    "output" : 23
                },
                {
                    "input" : 6,
                    "interpolation" : "LINEAR",
                    "output" : 24
                },
                {
                    "input" : 6,
                    "interpolation" : "LINEAR",
                    "output" : 25
                },
                {
                    "input" : 6,
                    "interpolation" : "LINEAR",
                    "output" : 26
                },
                {
                    "input" : 6,
                    "interpolation" : "LINEAR",
                    "output" : 27
                },
                {
                    "input" : 6,
                    "interpolation" : "LINEAR",
                    "output" : 28
                },
                {
                    "input" : 6,
                    "interpolation" : "LINEAR",
                    "output" : 29
                },
                {
                    "input" : 6,
                    "interpolation" : "LINEAR",
                    "output" : 30
                },
                {
                    "input" : 6,
                    "interpolation" : "LINEAR",
                    "output" : 31
                },
                {
                    "input" : 6,
                    "interpolation" : "LINEAR",
                    "output" : 32
                },
                {
                    "input" : 6,
                    "interpolation" : "LINEAR",
                    "output" : 33
                }
            ]
        }
    ],
    "meshes" : [
        {
            "name" : "Mesh_0",
            "primitives" : [
                {
                    "attributes" : {
                        "POSITION" : 0,
                        "NORMAL" : 1,
                        "JOINTS_0" : 2,
                        "WEIGHTS_0" : 3
                    },
                    "indices" : 4
                }
            ]
        }
    ],
    "skins" : [
        {
            "inverseBindMatrices" : 5,
            "joints" : [
                8,
                7,
                6,
                2,
                1,
                0,
                5,
                4,
                3
            ],
            "name" : "Armature.001"
        }
    ],
    "accessors" : [
        {
            "bufferView" : 0,
            "componentType" : 5126,
            "count" : 20,
            "max" : [
                0.5,
                3.6321990489959717,
                1.45490342501944e-23
            ],
            "min" : [
                -0.5,
                -8.606585310020698e-17,
                -1.5149538512559957e-08
            ],
            "type" : "VEC3"
        },
        {
            "bufferView" : 1,
            "componentType" : 5126,
            "count" : 20,
            "type" : "VEC3"
        },
        {
            "bufferView" : 2,
            "componentType" : 5123,
            "count" : 20,
            "type" : "VEC4"
        },
        {
            "bufferView" : 3,
            "componentType" : 5126,
            "count" : 20,
            "type" : "VEC4"
        },
        {
            "bufferView" : 4,
            "componentType" : 5123,
            "count" : 48,
            "type" : "SCALAR"
        },
        {
            "bufferView" : 5,
            "componentType" : 5126,
            "count" : 9,
            "type" : "MAT4"
        },
        {
            "bufferView" : 6,
            "componentType" : 5126,
            "count" : 133,
            "max" : [
                5.5
            ],
            "min" : [
                0
            ],
            "type" : "SCALAR"
        },
        {
            "bufferView" : 7,
            "componentType" : 5126,
            "count" : 133,
            "type" : "VEC3"
        },
        {
            "bufferView" : 8,
            "componentType" : 5126,
            "count" : 133,
            "type" : "VEC4"
        },
        {
            "bufferView" : 9,
            "componentType" : 5126,
            "count" : 133,
            "type" : "VEC3"
        },
        {
            "bufferView" : 10,
            "componentType" : 5126,
            "count" : 133,
            "type" : "VEC3"
        },
        {
            "bufferView" : 11,
            "componentType" : 5126,
            "count" : 133,
            "type" : "VEC4"
        },
        {
            "bufferView" : 12,
            "componentType" : 5126,
            "count" : 133,
            "type" : "VEC3"
        },
        {
            "bufferView" : 13,
            "componentType" : 5126,
            "count" : 133,
            "type" : "VEC3"
        },
        {
            "bufferView" : 14,
            "componentType" : 5126,
            "count" : 133,
            "type" : "VEC4"
        },
        {
            "bufferView" : 15,
            "componentType" : 5126,
            "count" : 133,
            "type" : "VEC3"
        },
        {
            "bufferView" : 16,
            "componentType" : 5126,
            "count" : 133,
            "type" : "VEC3"
        },
        {
            "bufferView" : 17,
            "componentType" : 5126,
            "count" : 133,
            "type" : "VEC4"
        },
        {
            "bufferView" : 18,
            "componentType" : 5126,
            "count" : 133,
            "type" : "VEC3"
        },
        {
            "bufferView" : 19,
            "componentType" : 5126,
            "count" : 133,
            "type" : "VEC3"
        },
        {
            "bufferView" : 20,
            "componentType" : 5126,
            "count" : 133,
            "type" : "VEC4"
        },
        {
            "bufferView" : 21,
            "componentType" : 5126,
            "count" : 133,
            "type" : "VEC3"
        },
        {
            "bufferView" : 22,
            "componentType" : 5126,
            "count" : 133,
            "type" : "VEC3"
        },
        {
            "bufferView" : 23,
            "componentType" : 5126,
            "count" : 133,
            "type" : "VEC4"
        },
        {
            "bufferView" : 24,
            "componentType" : 5126,
            "count" : 133,
            "type" : "VEC3"
        },
        {
            "bufferView" : 25,
            "componentType" : 5126,
            "count" : 133,
            "type" : "VEC3"
        },
        {
            "bufferView" : 26,
            "componentType" : 5126,
            "count" : 133,
            "type" : "VEC4"
        },
        {
            "bufferView" : 27,
            "componentType" : 5126,
            "count" : 133,
            "type" : "VEC3"
        },
        {
            "bufferView" : 28,
            "componentType" : 5126,
            "count" : 133,
            "type" : "VEC3"
        },
        {
            "bufferView" : 29,
            "componentType" : 5126,
            "count" : 133,
            "type" : "VEC4"
        },
        {
            "bufferView" : 30,
            "componentType" : 5126,
            "count" : 133,
            "type" : "VEC3"
        },
        {
            "bufferView" : 31,
            "componentType" : 5126,
            "count" : 133,
            "type" : "VEC3"
        },
        {
            "bufferView" : 32,
            "componentType" : 5126,
            "count" : 133,
            "type" : "VEC4"
        },
        {
            "bufferView" : 33,
            "componentType" : 5126,
            "count" : 133,
            "type" : "VEC3"
        }
    ],
    "bufferViews" : [
        {
            "buffer" : 0,
            "byteLength" : 240,
            "byteOffset" : 0
        },
        {
            "buffer" : 0,
            "byteLength" : 240,
            "byteOffset" : 240
        },
        {
            "buffer" : 0,
            "byteLength" : 160,
            "byteOffset" : 480
        },
        {
            "buffer" : 0,
            "byteLength" : 320,
            "byteOffset" : 640
        },
        {
            "buffer" : 0,
            "byteLength" : 96,
            "byteOffset" : 960
        },
        {
            "buffer" : 0,
            "byteLength" : 576,
            "byteOffset" : 1056
        },
        {
            "buffer" : 0,
            "byteLength" : 532,
            "byteOffset" : 1632
        },
        {
            "buffer" : 0,
            "byteLength" : 1596,
            "byteOffset" : 2164
        },
        {
            "buffer" : 0,
            "byteLength" : 2128,
            "byteOffset" : 3760
        },
        {
            "buffer" : 0,
            "byteLength" : 1596,
            "byteOffset" : 5888
        },
        {
            "buffer" : 0,
            "byteLength" : 1596,
            "byteOffset" : 7484
        },
        {
            "buffer" : 0,
            "byteLength" : 2128,
            "byteOffset" : 9080
        },
        {
            "buffer" : 0,
            "byteLength" : 1596,
            "byteOffset" : 11208
        },
        {
            "buffer" : 0,
            "byteLength" : 1596,
            "byteOffset" : 12804
        },
        {
            "buffer" : 0,
            "byteLength" : 2128,
            "byteOffset" : 14400
        },
        {
            "buffer" : 0,
            "byteLength" : 1596,
            "byteOffset" : 16528
        },
        {
            "buffer" : 0,
            "byteLength" : 1596,
            "byteOffset" : 18124
        },
        {
            "buffer" : 0,
            "byteLength" : 2128,
            "byteOffset" : 19720
        },
        {
            "buffer" : 0,
            "byteLength" : 1596,
            "byteOffset" : 21848
        },
        {
            "buffer" : 0,
            "byteLength" : 1596,
            "byteOffset" : 23444
        },
        {
            "buffer" : 0,
            "byteLength" : 2128,
            "byteOffset" : 25040
        },
        {
            "buffer" : 0,
            "byteLength" : 1596,
            "byteOffset" : 27168
        },
        {
            "buffer" : 0,
            "byteLength" : 1596,
            "byteOffset" : 28764
        },
        {
            "buffer" : 0,
            "byteLength" : 2128,
            "byteOffset" : 30360
        },
        {
            "buffer" : 0,
            "byteLength" : 1596,
            "byteOffset" : 32488
        },
        {
            "buffer" : 0,
            "byteLength" : 1596,
            "byteOffset" : 34084
        },
        {
            "buffer" : 0,
            "byteLength" : 2128,
            "byteOffset" : 35680
        },
        {
            "buffer" : 0,
            "byteLength" : 1596,
            "byteOffset" : 37808
        },
        {
            "buffer" : 0,
            "byteLength" : 1596,
            "byteOffset" : 39404
        },
        {
            "buffer" : 0,
            "byteLength" : 2128,
            "byteOffset" : 41000
        },
        {
            "buffer" : 0,
            "byteLength" : 1596,
            "byteOffset" : 43128
        },
        {
            "buffer" : 0,
            "byteLength" : 1596,
            "byteOffset" : 44724
        },
        {
            "buffer" : 0,
            "byteLength" : 2128,
            "byteOffset" : 46320
        },
        {
            "buffer" : 0,
            "byteLength" : 1596,
            "byteOffset" : 48448
        }
    ],
    "buffers" : [
        {
            "byteLength" : 50044,
            "uri" : "simple_skin_2.bin"
        }
    ]
}
